<svg width="1600" height="1000" viewBox="0 0 1600 1000" fill="none" xmlns="http://www.w3.org/2000/svg">
<rect width="1600" height="1000" rx="48" fill="#020617"/>
<rect x="40" y="40" width="1520" height="920" rx="40" fill="url(#bg)"/>
<circle cx="1320" cy="180" r="240" fill="#34D399" fill-opacity="0.18"/>
<circle cx="260" cy="820" r="220" fill="#60A5FA" fill-opacity="0.18"/>
<rect x="120" y="140" width="620" height="86" rx="24" fill="rgba(255,255,255,0.08)"/>
<rect x="120" y="280" width="740" height="30" rx="15" fill="rgba(255,255,255,0.12)"/>
<rect x="120" y="340" width="670" height="30" rx="15" fill="rgba(255,255,255,0.08)"/>
<rect x="120" y="440" width="1240" height="340" rx="32" fill="rgba(2,6,23,0.72)" stroke="rgba(255,255,255,0.08)"/>
<rect x="180" y="504" width="410" height="44" rx="18" fill="rgba(34,211,238,0.12)"/>
<rect x="180" y="578" width="900" height="24" rx="12" fill="rgba(255,255,255,0.10)"/>
<rect x="180" y="628" width="820" height="24" rx="12" fill="rgba(255,255,255,0.08)"/>
<rect x="180" y="678" width="520" height="24" rx="12" fill="rgba(255,255,255,0.06)"/>
<text x="120" y="198" fill="white" font-size="58" font-family="Inter, Arial, sans-serif" font-weight="700">Data Flow</text>
<text x="120" y="250" fill="#94A3B8" font-size="30" font-family="Inter, Arial, sans-serif">Frontend structure designed for future APIs</text>
<defs>
  <linearGradient id="bg" x1="0" y1="0" x2="1600" y2="1000" gradientUnits="userSpaceOnUse">
    <stop stop-color="#0F172A"/>
    <stop offset="1" stop-color="#111827"/>
  </linearGradient>
</defs>
</svg>