<svg width="64" height="64" viewBox="0 0 64 64" fill="none" xmlns="http://www.w3.org/2000/svg">
  <rect width="64" height="64" rx="18" fill="#07111F"/>
  <rect x="8" y="8" width="48" height="48" rx="14" fill="url(#paint0_linear)" fill-opacity="0.12"/>
  <path d="M20 18V37C20 44.1797 25.8203 50 33 50C40.1797 50 46 44.1797 46 37V18" stroke="#67E8F9" stroke-width="5" stroke-linecap="round"/>
  <path d="M26 18V36C26 39.866 29.134 43 33 43C36.866 43 40 39.866 40 36V18" stroke="#CFFAFE" stroke-opacity="0.6" stroke-width="3" stroke-linecap="round"/>
  <path d="M18 19.5C22.5 13.8333 27.5 11 33 11C38.5 11 43.5 13.8333 48 19.5" stroke="#22D3EE" stroke-opacity="0.35" stroke-width="2.5" stroke-linecap="round"/>
  <defs>
    <linearGradient id="paint0_linear" x1="8" y1="8" x2="56" y2="56" gradientUnits="userSpaceOnUse">
      <stop stop-color="#22D3EE"/>
      <stop offset="1" stop-color="#0F172A"/>
    </linearGradient>
  </defs>
</svg>
